<svg width="33" height="31" viewBox="0 0 33 31" fill="none" xmlns="http://www.w3.org/2000/svg">
<g id="vuesax/outline/send">
<g id="send">
<path id="Vector" d="M7.4388 28.0938C5.8988 28.0938 4.92255 27.6029 4.3038 27.0217C3.0938 25.885 2.2413 23.4696 4.9638 18.3417L6.16005 16.1071C6.3113 15.81 6.3113 15.19 6.16005 14.8929L4.9638 12.6583C2.22755 7.53042 3.0938 5.10208 4.3038 3.97833C5.50005 2.84167 8.08505 2.02792 13.5301 4.59833L25.3001 10.1267C28.2288 11.4958 29.8376 13.4075 29.8376 15.5C29.8376 17.5925 28.2288 19.5042 25.3138 20.8733L13.5438 26.4017C10.8763 27.6546 8.8963 28.0938 7.4388 28.0938ZM7.4388 4.84375C6.6963 4.84375 6.1188 5.01167 5.7613 5.3475C4.75755 6.2775 5.1563 8.69292 6.8063 11.78L8.00255 14.0275C8.44255 14.8671 8.44255 16.1329 8.00255 16.9725L6.8063 19.2071C5.1563 22.3071 4.75755 24.7096 5.7613 25.6396C6.7513 26.5825 9.32255 26.2079 12.6226 24.6579L24.3926 19.1296C26.5513 18.1221 27.7751 16.7917 27.7751 15.4871C27.7751 14.1825 26.5375 12.8521 24.3788 11.8446L12.6088 6.32917C10.5188 5.3475 8.71755 4.84375 7.4388 4.84375Z" fill="#8687E7"/>
<path id="Vector_2" d="M14.905 16.4688H7.47998C6.91623 16.4688 6.44873 16.0296 6.44873 15.5C6.44873 14.9704 6.91623 14.5312 7.47998 14.5312H14.905C15.4687 14.5312 15.9362 14.9704 15.9362 15.5C15.9362 16.0296 15.4687 16.4688 14.905 16.4688Z" fill="#8687E7"/>
</g>
</g>
</svg>
